<?xml version="1.0" standalone="no"?>
<!DOCTYPE svg PUBLIC "-//W3C//DTD SVG 20010904//EN"
 "http://www.w3.org/TR/2001/REC-SVG-20010904/DTD/svg10.dtd">
<svg version="1.0" xmlns="http://www.w3.org/2000/svg"
 width="300.000000pt" height="169.000000pt" viewBox="0 0 300.000000 169.000000"
 preserveAspectRatio="xMidYMid meet">
<metadata>
Created by potrace 1.10, written by Peter Selinger 2001-2011
</metadata>
<g transform="translate(0.000000,169.000000) scale(0.100000,-0.100000)"
fill="#000000" stroke="none">
<path d="M1385 1511 c-16 -4 24 -6 90 -3 66 2 125 5 130 7 20 7 -191 3 -220
-4z"/>
<path d="M1390 1490 c-41 -4 -79 -5 -84 -2 -5 3 -6 0 -3 -5 4 -6 -7 -16 -25
-22 -38 -13 -48 -14 -28 -1 8 5 11 10 5 10 -5 0 -17 -5 -25 -10 -8 -5 -11 -10
-6 -10 5 0 -22 -16 -60 -35 -92 -46 -210 -163 -260 -257 -20 -38 -33 -72 -30
-75 3 -3 15 15 27 40 13 25 26 44 31 41 4 -3 5 1 3 8 -6 15 47 93 62 93 5 0
33 22 62 50 139 132 409 199 603 150 89 -23 234 -97 290 -147 26 -24 60 -54
76 -68 31 -27 90 -125 98 -162 19 -92 22 -124 18 -211 -7 -155 -18 -218 -53
-310 -26 -66 -116 -179 -196 -245 -35 -28 -151 -91 -180 -96 -5 -2 -35 -8 -65
-14 -76 -17 -174 -21 -229 -10 -25 5 -57 12 -71 14 -38 8 -155 56 -158 66 -2
4 -10 8 -17 8 -7 0 -15 3 -17 8 -1 4 -23 22 -48 40 -58 41 -123 122 -156 192
-14 30 -34 73 -45 94 -11 22 -18 48 -16 58 3 10 1 18 -3 18 -13 0 -35 110 -24
118 5 4 10 40 11 81 2 81 23 157 52 188 11 11 25 40 32 64 7 24 18 51 24 59
21 27 26 40 16 40 -14 0 -62 -71 -55 -81 3 -5 -13 -36 -35 -70 -49 -76 -63
-138 -61 -272 1 -56 -1 -115 -5 -132 -5 -23 -4 -26 4 -15 6 8 11 24 12 35 0
11 5 2 10 -20 7 -26 6 -48 0 -62 -7 -16 -7 -32 0 -50 5 -16 12 -34 15 -42 2
-8 7 -12 9 -9 3 3 -2 22 -11 43 -11 27 -12 41 -5 48 8 8 11 6 11 -5 0 -23 63
-139 108 -199 20 -28 72 -77 114 -109 43 -31 74 -61 70 -65 -4 -5 -2 -5 4 -2
7 4 36 -4 65 -17 30 -13 79 -29 109 -37 76 -19 240 -16 319 5 188 51 341 178
423 353 45 95 58 156 65 300 7 156 -5 234 -49 313 -37 68 -97 142 -108 135 -4
-3 -15 6 -24 20 -18 28 -131 103 -202 135 -107 47 -209 58 -394 40z"/>
<path d="M824 831 c3 -18 6 -52 6 -74 0 -25 4 -37 9 -31 9 9 -4 123 -16 134
-3 3 -3 -10 1 -29z"/>
<path d="M861 673 c-1 -6 -4 -20 -7 -30 -5 -17 -5 -17 6 0 6 10 9 23 6 30 -3
9 -5 9 -5 0z"/>
<path d="M910 515 c0 -5 14 -32 30 -60 16 -27 30 -45 30 -40 0 6 -14 33 -30
60 -16 28 -30 46 -30 40z"/>
<path d="M1120 271 c0 -9 30 -24 36 -18 2 1 -6 8 -16 15 -11 7 -20 8 -20 3z"/>
<path d="M1240 200 c8 -5 20 -10 25 -10 6 0 3 5 -5 10 -8 5 -19 10 -25 10 -5
0 -3 -5 5 -10z"/>
</g>
</svg>
