<svg width="190" height="186" viewBox="0 0 190 186" fill="none" xmlns="http://www.w3.org/2000/svg">
<path d="M35.5202 185.454C24.6859 175.768 15.9668 164.094 9.87428 151.117C3.78175 138.141 0.438404 124.122 0.0402937 109.883C-0.357817 95.644 2.19732 81.4718 7.55588 68.1974C12.9144 54.9231 20.9685 42.8136 31.2459 32.5792C41.5233 22.3448 53.817 14.1915 67.4062 8.59736C80.9954 3.00321 95.6065 0.0808567 110.383 0.00165414C125.159 -0.0775484 139.803 2.688 153.456 8.13612C167.109 13.5842 179.496 21.6053 189.891 31.7289L181.707 39.5374C172.39 30.464 161.288 23.275 149.052 18.3921C136.815 13.5091 123.69 11.0305 110.447 11.1015C97.2034 11.1725 84.108 13.7917 71.9285 18.8055C59.7491 23.8193 48.7307 31.1268 39.5194 40.2995C30.3082 49.4722 23.0897 60.3254 18.287 72.2228C13.4843 84.1201 11.1942 96.822 11.5511 109.584C11.9079 122.345 14.9044 134.91 20.3649 146.541C25.8254 158.171 33.64 168.634 43.3503 177.315L35.5202 185.454Z" fill="#2E5332"/>
</svg>
