<svg xmlns="http://www.w3.org/2000/svg" xmlns:xlink="http://www.w3.org/1999/xlink" version="1.1" id="Layer_1" x="0px" y="0px" viewBox="-449 491.4 100 19.6" style="enable-background:new -449 491.4 100 19.6;" xml:space="preserve">
<style type="text/css">
	.st0{display:none;}
	.st1{display:inline;}
	.st2{fill:none;stroke:#000000;stroke-width:7;stroke-linecap:round;stroke-miterlimit:10;}
	.st3{fill:#d1423c;}
</style>
<g id="Layer_1_1_" class="st0">
	<g class="st1">
		<path class="st2" d="M-345.5,507.5c-8.3,0-8.3-14-16.7-14c-8.3,0-8.3,14-16.7,14c-8.3,0-8.3-14-16.7-14c-8.3,0-8.3,14-16.7,14    c-8.3,0-8.3-14-16.7-14s-8.3,14-16.7,14"/>
	</g>
</g>
<g id="Layer_2">
	<path class="st3" d="M-352.3,511c-5.8,0-8.6-4.7-10.6-8.1s-3.1-4.9-5-4.9c-1.8,0-3,1.6-5,4.9c-2,3.4-4.8,8.1-10.6,8.1   s-8.6-4.7-10.6-8.1s-3.1-4.9-5-4.9c-1.8,0-3,1.6-5,4.9c-2,3.4-4.8,8.1-10.6,8.1c-5.8,0-8.6-4.7-10.6-8.1s-3.1-4.9-5-4.9   c-1.8,0-3,1.6-5,4.9c-2,3.4-4.8,8.1-10.6,8.1c-1.8,0-3.3-1.5-3.3-3.3c0-1.8,1.5-3.3,3.3-3.3c1.8,0,3-1.6,5-4.9   c2-3.4,4.8-8.1,10.6-8.1c5.8,0,8.6,4.7,10.6,8.1s3.1,4.9,5,4.9c1.8,0,3-1.6,5-4.9c2.2-3.4,5-8.1,10.7-8.1c5.8,0,8.6,4.7,10.6,8.1   s3.1,4.9,5,4.9c1.8,0,3-1.6,5-4.9c2-3.4,4.8-8.1,10.6-8.1c5.8,0,8.6,4.7,10.6,8.1s3.1,4.9,5,4.9c1.8,0,3.3,1.5,3.3,3.3   C-348.9,509.5-350.5,511-352.3,511z"/>
</g>
</svg>