<?xml version="1.0" standalone="no"?>
<!DOCTYPE svg PUBLIC "-//W3C//DTD SVG 20010904//EN"
 "http://www.w3.org/TR/2001/REC-SVG-20010904/DTD/svg10.dtd">
<svg version="1.0" xmlns="http://www.w3.org/2000/svg"
 width="300.000000pt" height="169.000000pt" viewBox="0 0 300.000000 169.000000"
 preserveAspectRatio="xMidYMid meet">
<metadata>
Created by potrace 1.10, written by Peter Selinger 2001-2011
</metadata>
<g transform="translate(0.000000,169.000000) scale(0.100000,-0.100000)"
fill="#000000" stroke="none">
<path d="M385 1211 c-100 -45 -136 -166 -74 -246 29 -36 34 -25 10 21 -41 77
-13 167 64 204 52 25 81 25 130 0 46 -23 45 -23 45 -10 0 15 -79 50 -110 50
-14 0 -43 -9 -65 -19z"/>
<path d="M1044 1211 c-96 -44 -129 -149 -73 -240 29 -48 35 -31 9 24 -61 127
67 257 193 196 49 -24 61 -26 51 -10 -10 17 -85 49 -114 49 -14 0 -43 -9 -66
-19z"/>
<path d="M1059 1131 c-38 -39 -39 -87 -3 -130 21 -26 33 -31 68 -31 54 0 83
21 96 69 19 71 -20 121 -93 121 -29 0 -46 -7 -68 -29z m130 -17 c11 -14 18
-31 16 -37 -2 -7 -6 -24 -9 -39 -7 -31 -49 -57 -81 -50 -59 12 -85 87 -45 130
30 32 92 30 119 -4z"/>
<path d="M1804 1041 c-48 -29 -72 -109 -49 -164 26 -62 97 -99 162 -83 74 19
124 127 88 195 -34 67 -134 93 -201 52z m157 -32 c29 -28 31 -34 27 -85 -5
-63 -24 -88 -76 -101 -49 -11 -73 -7 -105 21 -80 69 -29 196 78 196 36 0 50
-6 76 -31z"/>
<path d="M702 667 c-48 -49 -58 -64 -48 -74 11 -9 26 2 74 50 48 49 58 64 48
74 -11 9 -26 -2 -74 -50z m23 -12 c-26 -30 -52 -55 -57 -55 -5 0 12 25 37 55
26 30 52 55 57 55 5 0 -12 -25 -37 -55z"/>
<path d="M735 630 c-33 -33 -55 -60 -49 -60 5 0 33 27 62 60 29 33 52 60 50
60 -2 0 -30 -27 -63 -60z"/>
<path d="M1469 667 c-82 -44 -113 -124 -65 -172 66 -66 223 -23 263 73 40 97
-84 159 -198 99z m171 -12 c53 -48 0 -143 -96 -171 -159 -46 -210 107 -60 178
50 23 127 20 156 -7z"/>
</g>
</svg>
