<svg width="1398" height="1290" viewBox="0 0 1398 1290" fill="none" xmlns="http://www.w3.org/2000/svg">
<path d="M1398 645C1398 560.297 1379.92 476.424 1344.79 398.169C1309.66 319.914 1258.18 248.81 1193.27 188.916C1128.36 129.022 1051.3 81.512 966.496 49.0977C881.689 16.6834 790.794 -3.70247e-06 699 0C607.206 3.70247e-06 516.311 16.6834 431.504 49.0977C346.698 81.512 269.64 129.022 204.732 188.916C139.824 248.81 88.3362 319.914 53.2082 398.169C18.0802 476.424 -8.02488e-06 560.297 0 645L117.843 645C117.843 574.577 132.875 504.844 162.081 439.782C191.287 374.72 234.095 315.603 288.06 265.807C342.025 216.01 406.092 176.51 476.601 149.56C547.11 122.61 622.681 108.74 699 108.74C775.319 108.739 850.89 122.61 921.399 149.56C991.908 176.51 1055.97 216.01 1109.94 265.807C1163.91 315.603 1206.71 374.72 1235.92 439.782C1265.12 504.844 1280.16 574.577 1280.16 645H1398Z" fill="#DFA5A5"/>
<path d="M785 1059C982.718 1059 1143 901.852 1143 708C1143 514.148 982.718 357 785 357C587.282 357 427 514.148 427 708C427 901.852 587.282 1059 785 1059Z" fill="#285AB7" fill-opacity="0.8"/>
</svg>
