<svg width="1031" height="524" viewBox="0 0 1031 524" fill="none" xmlns="http://www.w3.org/2000/svg">
<path d="M1031 523.5C1031 454.753 1017.67 386.679 991.76 323.165C965.854 259.651 927.882 201.941 880.014 153.33C832.145 104.718 775.317 66.1574 712.773 39.8491C650.23 13.5407 583.196 -3.00503e-06 515.5 0C447.804 3.00503e-06 380.77 13.5407 318.227 39.8491C255.683 66.1574 198.855 104.718 150.986 153.33C103.118 201.941 65.1464 259.651 39.2401 323.165C13.3338 386.679 -5.91821e-06 454.753 0 523.5L86.9073 523.5C86.9073 466.343 97.9932 409.746 119.532 356.939C141.071 304.133 172.641 256.152 212.439 215.736C252.238 175.32 299.485 143.26 351.485 121.387C403.484 99.514 459.216 88.256 515.5 88.256C571.784 88.256 627.516 99.514 679.515 121.387C731.515 143.26 778.762 175.32 818.561 215.736C858.359 256.152 889.929 304.133 911.468 356.939C933.007 409.746 944.093 466.343 944.093 523.5H1031Z" fill="#DFA5A5"/>
</svg>
