<svg version="1.0" xmlns="http://www.w3.org/2000/svg"
 width="200.000000pt" height="200.000000pt" viewBox="0 0 200.000000 200.000000"
 preserveAspectRatio="xMidYMid meet">
<metadata>
Created by potrace 1.10, written by Peter Selinger 2001-2011
</metadata>
<g transform="translate(0.000000,200.000000) scale(0.100000,-0.100000)"
fill="#d1423c" stroke="none">
<path d="M244 1132 c-28 -10 -63 -28 -79 -40 -30 -23 -75 -80 -75 -94 0 -18
16 -6 39 28 49 72 159 114 244 93 41 -10 65 -27 153 -110 127 -119 210 -165
275 -155 64 10 97 32 200 131 130 126 190 155 275 134 38 -10 66 -31 151 -110
130 -122 206 -165 280 -154 63 8 139 50 176 97 42 52 25 61 -18 11 -45 -53
-112 -86 -179 -87 -69 -1 -125 32 -241 144 -108 105 -141 124 -215 124 -74 1
-128 -31 -256 -154 -113 -109 -159 -130 -234 -110 -48 13 -137 79 -215 160
-98 101 -180 128 -281 92z"/>
</g>
</svg>
