<?xml version="1.0" standalone="no"?>
<!DOCTYPE svg PUBLIC "-//W3C//DTD SVG 20010904//EN"
 "http://www.w3.org/TR/2001/REC-SVG-20010904/DTD/svg10.dtd">
<svg version="1.0" xmlns="http://www.w3.org/2000/svg"
 width="300.000000pt" height="169.000000pt" viewBox="0 0 300.000000 169.000000"
 preserveAspectRatio="xMidYMid meet">
<metadata>
Created by potrace 1.10, written by Peter Selinger 2001-2011
</metadata>
<g transform="translate(0.000000,169.000000) scale(0.100000,-0.100000)"
fill="#000000" stroke="none">
<path d="M1616 1265 c-14 -14 -29 -25 -35 -25 -5 0 -13 -9 -16 -20 -3 -11 -11
-20 -16 -20 -5 0 -9 -7 -9 -15 0 -8 -5 -14 -12 -13 -6 2 -18 -9 -25 -24 -8
-16 -22 -28 -33 -28 -13 0 -17 -5 -14 -15 4 -9 0 -15 -8 -15 -16 0 -58 -41
-58 -55 0 -5 -20 -28 -45 -52 -25 -23 -45 -45 -45 -49 0 -16 -53 -75 -79 -89
-16 -8 -34 -28 -41 -45 -8 -19 -18 -29 -26 -26 -8 3 -14 -1 -14 -8 0 -8 -13
-19 -29 -26 -16 -6 -37 -27 -47 -48 -11 -20 -22 -38 -26 -40 -5 -2 -8 -10 -8
-17 0 -8 -15 -17 -35 -21 -25 -4 -35 -11 -35 -25 0 -24 -8 -24 -34 -2 -20 17
-20 17 -7 0 8 -10 26 -24 40 -31 24 -12 29 -11 56 15 17 16 36 29 43 29 6 0
12 7 12 15 0 8 5 15 10 15 6 0 10 7 10 15 0 8 6 12 13 9 7 -2 17 8 24 27 7 17
21 33 32 36 12 3 17 11 14 19 -3 9 2 14 15 14 13 0 29 14 43 38 13 20 29 41
36 45 24 15 63 61 78 93 8 17 33 43 55 58 23 15 45 38 50 51 5 14 16 25 24 25
7 0 16 6 19 14 3 8 18 20 32 28 15 7 34 27 43 43 10 17 20 32 23 35 3 3 8 13
12 23 4 9 20 20 36 23 20 4 31 13 33 27 3 20 4 20 21 3 10 -10 20 -16 23 -14
6 7 -28 35 -53 42 -15 5 -28 0 -47 -19z"/>
<path d="M1725 1167 c-43 -33 -75 -68 -75 -83 0 -8 -6 -11 -15 -8 -9 4 -16 -3
-21 -20 -4 -16 -15 -28 -29 -32 -15 -4 -22 -11 -18 -20 3 -9 -2 -14 -15 -14
-13 0 -29 -14 -43 -37 -13 -21 -29 -42 -36 -46 -24 -15 -54 -51 -70 -85 -9
-18 -35 -46 -59 -63 -24 -16 -49 -41 -56 -56 -7 -15 -16 -27 -20 -25 -4 1 -19
-10 -32 -23 -14 -14 -29 -25 -35 -25 -5 0 -23 -25 -40 -55 -24 -43 -38 -57
-61 -62 -27 -5 -35 -14 -31 -35 2 -12 -10 -10 -29 4 -9 7 -5 3 8 -9 30 -29 45
-29 76 2 14 14 30 25 35 25 5 0 18 13 27 29 10 17 21 28 25 26 4 -3 14 11 23
30 11 22 24 35 36 35 13 0 18 5 14 15 -4 10 0 15 11 15 17 0 54 37 55 55 0 6
18 26 40 44 22 18 47 48 56 67 9 19 37 49 61 66 25 17 49 43 55 59 5 16 14 27
18 24 5 -3 21 6 37 21 15 14 35 32 44 40 9 8 24 32 35 54 15 31 26 41 52 46
27 5 33 10 29 25 -6 23 1 24 25 2 10 -9 18 -11 18 -6 0 13 -19 29 -45 37 -14
4 -31 -2 -50 -17z"/>
<path d="M1834 1065 c-16 -14 -33 -25 -39 -25 -16 -1 -47 -49 -39 -63 5 -9 4
-9 -6 0 -11 11 -16 7 -27 -18 -7 -17 -22 -33 -32 -36 -12 -3 -17 -11 -14 -19
3 -9 -2 -14 -15 -14 -12 0 -29 -12 -39 -26 -10 -15 -31 -41 -48 -58 -16 -17
-44 -53 -63 -81 -18 -27 -49 -60 -68 -72 -18 -13 -41 -37 -50 -54 -8 -17 -18
-28 -21 -26 -3 3 -17 -5 -31 -19 -15 -13 -30 -24 -34 -24 -3 0 -17 -17 -29
-37 -13 -21 -27 -41 -32 -44 -5 -3 -8 -10 -6 -15 1 -5 -11 -13 -27 -19 -31
-11 -46 -24 -38 -37 8 -12 -7 -10 -26 4 -9 7 -5 3 8 -9 30 -29 41 -29 74 2 15
14 31 25 35 25 15 1 44 50 37 63 -5 8 -2 7 9 -2 15 -12 17 -11 17 3 0 9 4 16
9 16 5 0 11 9 14 20 3 12 14 20 26 20 14 0 19 5 15 15 -4 9 0 15 9 15 9 0 24
12 34 27 10 14 38 47 63 72 25 26 51 60 58 77 7 16 32 43 57 59 24 17 49 42
56 57 6 15 15 25 20 23 11 -7 95 76 103 103 4 12 12 22 17 22 6 0 8 4 4 9 -7
12 27 31 56 31 16 0 20 5 16 20 -6 24 1 25 25 3 10 -9 18 -11 18 -6 0 13 -19
29 -46 37 -14 4 -30 -2 -50 -19z m-93 -138 c-10 -9 -11 -8 -5 6 3 10 9 15 12
12 3 -3 0 -11 -7 -18z"/>
</g>
</svg>
